<svg width="157" height="64" viewBox="0 0 157 64" fill="none" xmlns="http://www.w3.org/2000/svg">
<path d="M156.638 63.062C156.638 46.5279 148.387 30.6709 133.699 18.9795C119.011 7.28816 99.0906 0.720002 78.3191 0.720001C57.5476 0.72 37.6268 7.28815 22.9391 18.9795C8.25146 30.6709 3.24267e-06 46.5279 1.06263e-07 63.062H19.5798C19.5798 50.6614 25.7684 38.7687 36.7841 30.0002C47.7999 21.2316 62.7405 16.3055 78.3191 16.3055C93.8977 16.3055 108.838 21.2316 119.854 30.0002C130.87 38.7687 137.058 50.6614 137.058 63.062H156.638Z" fill="#00A642"/>
<path d="M40.3877 8.51949C28.1157 13.9271 17.8934 21.8589 10.7889 31.4862C3.68441 41.1135 -0.0415561 52.0829 0.000349619 63.2482L19.58 63.2017C19.5486 54.8277 22.3431 46.6006 27.6715 39.3802C32.9998 32.1597 40.6666 26.2108 49.8706 22.1551L40.3877 8.51949Z" fill="#CEE963"/>
<path d="M117.479 9.07224C105.602 3.61423 92.1337 0.734138 78.4202 0.720053C64.7066 0.705968 51.2287 3.55838 39.3347 8.99198L49.0808 22.5095C58.0013 18.4343 68.1097 16.295 78.3949 16.3055C88.6801 16.3161 98.7815 18.4762 107.689 22.5697L117.479 9.07224Z" fill="#75D63A"/>
<path d="M134.466 36.5901L77.187 62.6386L73.6442 56.9226L134.466 36.5901Z" fill="#272525"/>
<path d="M78.6414 62.3758C76.4864 63.2221 73.8775 62.5176 72.8143 60.8022C71.7511 59.0868 72.6361 57.0101 74.7911 56.1638C76.9462 55.3175 79.5551 56.022 80.6183 57.7374C81.6815 59.4528 80.7964 61.5294 78.6414 62.3758Z" fill="#272525"/>
</svg>
