<svg width="31" height="31" viewBox="0 0 31 31" fill="none" xmlns="http://www.w3.org/2000/svg">
<path d="M15.7232 15.3263C16.4077 15.3263 16.9938 15.0759 17.4817 14.5753C17.9696 14.0746 18.2131 13.4735 18.2123 12.7718C18.2123 12.0693 17.9683 11.4678 17.4805 10.9671C16.9926 10.4664 16.4068 10.2165 15.7232 10.2174C15.0387 10.2174 14.4525 10.4677 13.9646 10.9684C13.4768 11.4691 13.2332 12.0702 13.2341 12.7718C13.2341 13.4743 13.478 14.0759 13.9659 14.5766C14.4537 15.0772 15.0395 15.3271 15.7232 15.3263ZM15.7232 28.0986C12.3836 25.1822 9.88956 22.4737 8.24094 19.9728C6.59233 17.472 5.76761 15.1568 5.76678 13.0273C5.76678 9.8342 6.76782 7.29038 8.76988 5.39582C10.7719 3.50126 13.0897 2.55399 15.7232 2.55399C18.3575 2.55399 20.6756 3.50126 22.6777 5.39582C24.6798 7.29038 25.6804 9.8342 25.6795 13.0273C25.6795 15.156 24.8548 17.4712 23.2054 19.9728C21.5559 22.4745 19.0619 25.1831 15.7232 28.0986Z" fill="#544C4C"/>
</svg>
