<svg width="1053" height="335" viewBox="0 0 1053 335" fill="none" xmlns="http://www.w3.org/2000/svg">
<path d="M0 0V334.973C36.0631 315.099 67.7274 286.001 100.096 259.809C144.653 223.752 200.566 167.376 257.5 174C287.51 177.49 422 193.186 441 239.5C479 272 540.246 328.075 590.329 299C620.616 281.42 566.522 132.45 590.329 106.77C613.033 82.2862 628.749 51.4462 654.259 29.9006C679.77 8.35703 721.653 -0.459106 744.969 23.4433C763.52 42.4616 763.175 74.5378 782.079 93.2044C800.321 111.214 830.23 110.334 854.509 102.107C878.788 93.8805 901.006 79.6599 926.069 74.2682C968.473 65.1487 1010.22 82.3326 1052.59 94.784V0H0Z" fill="#DEF4F6"/>
</svg>
